<?xml version="1.0" encoding="UTF-8"?>
<svg id="Layer_1" xmlns="http://www.w3.org/2000/svg" version="1.1" viewBox="0 0 1417.3 797.2">
  <!-- Generator: Adobe Illustrator 29.0.0, SVG Export Plug-In . SVG Version: 2.1.0 Build 186)  -->
  <defs>
    <style>
      .st0 {
        fill: #f79462;
      }

      .st1 {
        fill: #f9ac82;
      }

      .st2 {
        fill: #f79563;
      }

      .st3 {
        fill: #fbe0c9;
      }

      .st4 {
        fill: #f47821;
      }

      .st5 {
        fill: #f9ac83;
      }
    </style>
  </defs>
  <path class="st4" d="M1371.9,49.8c14.1-2.2,28.1-2.3,42-.6l3.4,1.7v603.5l-3.4,1.7c-99.7,4.6-199.7,7.9-300.2,10-132.3,4.3-265.7,12.7-395.1,40.4-87.9,21.1-180.3,41.2-264.6,39.9-11.2,3.7-25.5,4.2-37.6,4.4-117.9,2-235.8-1.8-353.8-6.1-3.2-.1-6.5-.5-9.7-1s-6.5-1.1-9.7-1.7c-12.8,1.1-25.7,1.4-38.6.9l-4.6-2V143.9l2.7-2.3c91.6-3.3,183.8-6.3,276.6-9.1,138.2-4.7,276.9-13.3,412.3-42.8,81-21.2,162.8-36.4,245.5-45.4l15.2,1c2.5-.8,5.1-1.5,7.7-2s5.2-1,7.8-1.2c46.5-3.4,93.6-3.4,140.1-3,82.9,1.7,165.8,4.7,248.6,8,2.6,0,5.2.5,7.8,1s5.2,1,7.8,1.7h0Z"/>
  <path class="st3" d="M1417.3,697.6v99.7H0v-47.6l.9-2.4c14-2.8,28-4.9,42.3-5.3,123.5,3.1,246.9,10.1,370.4,6.7,13.3-.4,27-2.1,40.4-2.3h25.2c154.7,36,318.1,20.7,475.1-3.3l181.1-27.7c88.5-13.4,178.1-20.9,266.9-21,4.1,0,12.4.8,15,3.3h0Z"/>
  <path class="st4" d="M0,97.4V0h1417.3v41l-.8,2.4c-14.7,3.2-29.5,5.7-44.6,6.4-140.2-3.5-279.3-14.6-419.7-4.4l-15.2-1.5c-154.6-38.5-315-21.9-470.4,4l-184.8,30.8c-89.1,13.2-180.4,24.9-270.7,21.3-1.9,0-3.8-.5-5.7-.9s-3.8-1.1-5.6-1.7h0Z"/>
  <path class="st0" d="M952.3,45.4c-85.9,6.2-155.4,22-238,41.5-229,54.1-465.8,44.9-699.2,57.1-5,.3-10-.3-15,0v-46.5C298.5,109.9,589.3-21.1,888.2,31.4c21.5,3.8,42.9,8.7,64,14.1h0Z"/>
  <path class="st2" d="M1417.3,654.4v43.2c-5.5.8-10.7-1-16-1.2-28-1.1-56.4.8-84.2,2.3-263.7,13.5-525.2,103.1-790.3,59.5-23.7-3.9-49.1-12.1-72.9-11.9l70.3-5.5c78.6-6.1,153.7-29.7,230.7-43.9,207.6-38.3,421-31.7,630.8-41.3,10.5-.5,21.1-.5,31.6-1.1h0Z"/>
  <path class="st5" d="M1417.3,41v10c-15.1-.9-30.3-.7-45.4-1.1l45.4-8.9Z"/>
  <path class="st1" d="M43.2,741.9l-43.2,7.8v-8.9c14.4-.9,28.9.8,43.2,1.1Z"/>
</svg>