<?xml version="1.0" encoding="UTF-8"?>
<svg id="Layer_1" data-name="Layer 1" xmlns="http://www.w3.org/2000/svg" viewBox="0 0 615.12 293.83">
  <defs>
    <style>
      .cls-1 {
        fill: #fff;
      }
    </style>
  </defs>
  <g>
    <path class="cls-1" d="M456.34,240.78c1.9,1.92-.38,7.55-3.02,10.38-4.63,4.96-46.02,22.41-55.06,25.53-77.6,26.83-193.82,24.38-263.41-23.38-7.67-5.27-12.8-14.15.33-12.3,16.87,2.37,35.33,10.1,52.43,13.28,71.15,13.27,135.38,13.87,206.68.51,8.91-1.67,59.54-16.58,62.06-14.03Z"/>
    <path class="cls-1" d="M580.41,197.3c-.22-3-1.25-4.74-1.53-5.19-1.12-1.8-2.49-2.66-2.92-2.91-.79-.46-1.39-.81-2.12-.77-1.61.09-2.28,1.95-3.64,3.43-2.17,2.36-6.08,3.6-9.36,2.89-3.37-.72-5.25-4.49-5.98-6.22v-67.16c-2.95-.2-10.41-.68-18.79-1-1.12-.04-2.67-.08-3.77.94-2.37,2.2.18,7.04-1.66,8.11-1.54.89-3.73-1.16-7.85-3.13,0,0-3.37-1.61-11.32-3.26-4.94-1.02-20.28-2.38-33.38,6.77,0,0-16.84,11.76-19.02,40.86-.27,3.6.04,6.99.04,6.99,0,0,0,0,0,0,.66,7.68,2.88,9.84,1.93,12.38-1.66,4.44-12.17,7.81-18.55,4.56-15.75-8.04,4.07-49.5-15.17-65.33-10.39-8.55-30.74-8.45-41.63,1.29-3.66,3.27-5.69,7.13-6.86,10.15-.56-40.53-.72-69.32-.1-74.54.06-.46.27-2.01-.63-3.14-1.63-2.05-5.63-1.09-11.91-.17-11.4,1.67-11.22.41-13.03,1.62-5.58,3.73-1.74,12.34-4.96,27.88-.42,2.01-2.59,12.16-8.1,23.48-3.07,6.3-8.31,15.3-17.19,24.68-1.93-3.29-5.2-7.86-10.45-11.8-14.16-10.61-34.18-10.09-48.36-2.72-1.72.89-10.88,5.84-18.01,16.5-1.12,1.67-4.43,6.88-6.46,14.01-5,17.51,1.49,33.29,4,38.67-3.18.73-15.43,3.15-26.39-3.95-12.45-8.06-14.53-22.74-14.64-23.89-1.25-13.86,31.02-47.75,32.74-71.67,2.58-35.88-41.27-47-54.32-18.25-7.96,17.55-5.77,57.98-5.42,78.42.26,15.05,9.3,21.03-8.98,32.55-11.79,7.43-21.38,5.52-23.44-8.95-2.56-18.01,3.72-117.52-3.14-122.34-7.73-5.43-85.1-12.15-96.98-10.17C15.6,51.48,1.74,86.48,14.96,110.52c10.92,19.87,41.06,24.48,40.6.88-.27-13.6-21.99-2.58-20.07-24.05,1.8-20.12,27.51-17.73,41.79-13.72-5.59,25.16-22.15,112.4-50.06,118.79-12.46,2.85-14.4-9.67-20.05-8.37-13.76,3.17-9.29,45.71,27.5,33.52,15.05-4.99,29.49-27.11,37.16-40.42,4.53-7.86,5.89-22.32,12.76-23.14,50.57-6.05,22.19,18.2,35.13,45.79,5.94,12.66,21.74,22.38,33.3,19.96,8.19-1.72,18.62-10.5,26.18-16.88,1.54-1.29,3.27-2.33,4.85-3.57,1.68-1.33,2.34-1.94,3.4-1.96,1.31-.02,2.2.87,4.09,2.55,1.57,1.41,3.32,2.63,4.81,4.12,3.43,3.43,10.38,6.95,14.87,8.64,17.15,6.49,34.18.05,36.13-.77,1.58-.67,3.25-1.14,4.82-1.84,2.45-1.1,3.69-1.93,5.41-1.62.86.15,1.24.48,2.41,1.17,0,0,.77.45,5.75,2.65,12.82,5.67,26.04,4.07,26.04,4.07,13.04-1.89,27.02-9.94,33.87-22.3,1.83-3.29,4.5-9.15,5.62-16,.88-5.4.68-10.55.68-10.55-.15-3.94-.61-3.78-.33-5.34.7-3.93,3.58-4.91,9.46-11.32,1.3-1.42,3.36-3.68,5.34-6.57,2.93-4.26,4.55-8.23,5.46-10.93v82.09c0,5.09,21.67,7.23,25.56,1.68,2.88-4.11.75-30.65,3.34-41.43,2.63-10.94,15.82-39.09,30.42-30,11.19,6.97-12.3,66.14,26.48,73.61,18.83,3.63,29.7-10.69,35.06-10.38,1.84.1,12.34,8.38,19.31,9.74,7.37,1.44,14.1.92,20.07-1.27,12.89-4.73,18.88-15.45,20.36-18.35.29,2.59,1.22,7.3,4.78,11.33,7.21,8.17,19.06,6.61,22.77,6.12,2.92-.38,13.74-1.81,18.21-9.73,1.02-1.8,2.47-5.3,2.17-9.4ZM116.06,130.32l-26.91-1.54c.83-4.76,2.16-12.84,3.48-23,2.25-17.3,2.27-23.92,7.04-26.79,1.83-1.1,6.45-2.92,16.39,2.07v49.25ZM200.11,90.49c1.62-5.24,9.86-6.61,11.46-4.93,1.16,1.22-.41,11.88-1.34,15.05l-10.55,23.73c1.38-9.88-2.33-24.91.44-33.84ZM303.54,154.32c-24.89,2.31-30.85.07-31.57-2.47-.76-2.65,4.02-6.27,6.98-7.74,7.48-3.73,16.61-.39,21.38,4.95,1.71,1.92,2.67,3.88,3.21,5.26ZM265.34,169.13c12.11,7.93,28.33,8.36,41.73,2.99-.56,37.74-44.02,34.06-41.73-2.99ZM531.43,162.36c-1.83,6.79-2.75,10.18-4.06,13.21-2.33,5.38-4.24,9.84-8.67,14.15-2.26,2.2-5.56,5.42-11.02,6.8-1.57.4-6.32,1.53-11.45-.33-9.46-3.45-12.33-14.28-12.94-16.59-3.02-11.41,2.52-20.68,3.45-22.18,1.11-1.8,5.74-8.82,14.81-11.91,4.54-1.55,8.63-1.58,11.23-1.36,3.61.3,6.26,1.4,11.57,3.57,4.74,1.94,7.13,2.94,8.08,4.77.86,1.65.74,3.34-1.02,9.87Z"/>
  </g>
  <g>
    <path class="cls-1" d="M173.69,33.6c-2.05.26-4.1.53-6.15.81-.49-3.62-.98-7.25-1.47-10.87-3.81.52-7.62,1.06-11.42,1.63.54,3.62,1.09,7.23,1.63,10.85-2.04.31-4.08.62-6.12.94-1.42-8.99-2.85-17.98-4.27-26.97,2.11-.33,4.22-.66,6.33-.98.54,3.59,1.08,7.18,1.62,10.77,3.83-.58,7.67-1.12,11.5-1.64-.49-3.6-.98-7.2-1.46-10.79,2.12-.29,4.24-.57,6.37-.84,1.15,9.03,2.3,18.06,3.45,27.09Z"/>
    <path class="cls-1" d="M198.84,30.8c-5.46.52-10.92,1.09-16.37,1.73-1.05-9.04-2.1-18.08-3.15-27.13,5.42-.63,10.85-1.2,16.29-1.72.16,1.69.32,3.39.49,5.08-3.29.31-6.58.65-9.87,1,.21,1.97.43,3.94.64,5.91,3.04-.33,6.07-.64,9.11-.93.16,1.68.32,3.36.49,5.04-3.02.29-6.04.6-9.06.93.22,2.02.44,4.04.65,6.06,3.43-.37,6.86-.72,10.29-1.04.16,1.69.32,3.39.48,5.08Z"/>
    <path class="cls-1" d="M222.05,28.95c-5.43.35-10.86.76-16.29,1.23-.78-9.07-1.56-18.14-2.34-27.21,2.12-.18,4.25-.36,6.37-.52.57,7.35,1.15,14.71,1.72,22.06,3.4-.26,6.8-.51,10.2-.73.11,1.72.22,3.45.34,5.17Z"/>
    <path class="cls-1" d="M226.8,28.66c2.74-9.28,5.59-18.54,8.55-27.79,2.52-.12,5.05-.22,7.57-.32,3.64,8.97,7.18,17.97,10.6,26.99-2.17.05-4.33.12-6.5.19-.69-1.8-1.39-3.6-2.08-5.4-3.37.12-6.75.26-10.12.42-.53,1.85-1.06,3.7-1.59,5.55-2.15.11-4.29.23-6.43.35ZM236.01,17.66c2.42-.11,4.84-.21,7.26-.3-1.11-3.14-2.22-6.28-3.35-9.42-.12-.34-.23-.65-.33-.93-.1-.28-.21-.61-.32-.99-.05,0-.1,0-.16,0-.07.32-.14.63-.22.94-.08.31-.17.64-.27,1-.88,3.23-1.75,6.46-2.61,9.69Z"/>
    <path class="cls-1" d="M259.71,27.41c-.15-9.1-.31-18.2-.46-27.3,3.35-.06,6.7-.09,10.05-.11,5.04-.02,8.81,1.11,11.3,3.35,2.49,2.24,3.69,5.59,3.62,10.03-.06,4.25-1.46,7.63-4.15,10.14-2.69,2.52-6.23,3.76-10.65,3.78-3.24.01-6.47.05-9.71.1ZM265.68,5.13c.05,5.7.1,11.4.15,17.1,1.03,0,2.05-.02,3.08-.02,2.69-.01,4.8-.8,6.35-2.38,1.54-1.58,2.33-3.72,2.34-6.44.02-2.58-.74-4.61-2.29-6.08-1.54-1.48-3.72-2.22-6.53-2.2-1.03,0-2.07.01-3.1.02Z"/>
    <path class="cls-1" d="M307.55,28.06c-5.48-.24-10.95-.43-16.43-.55.21-9.1.42-18.2.63-27.3,5.45.13,10.9.31,16.35.54-.07,1.7-.15,3.4-.22,5.1-3.3-.14-6.6-.27-9.9-.37-.06,1.98-.12,3.96-.18,5.94,3.05.09,6.1.21,9.14.34-.07,1.69-.14,3.37-.22,5.06-3.03-.13-6.06-.24-9.09-.33-.06,2.03-.13,4.06-.19,6.09,3.44.11,6.88.24,10.32.39-.08,1.7-.15,3.4-.23,5.1Z"/>
    <path class="cls-1" d="M336.72,29.9c-2.31-.19-4.61-.37-6.92-.53-1.18-2.55-2.36-5.11-3.57-7.66-.48-1.04-.97-1.78-1.45-2.23-.48-.45-1.09-.7-1.82-.75-.56-.04-1.12-.07-1.68-.1-.21,3.38-.41,6.75-.62,10.13-2.06-.13-4.11-.24-6.17-.35.48-9.09.96-18.18,1.45-27.27,3.37.18,6.74.38,10.11.6,3.52.23,6.06,1.13,7.63,2.66,1.57,1.53,2.25,3.47,2.07,5.81-.13,1.71-.78,3.22-1.92,4.54-1.14,1.32-2.66,2.18-4.56,2.58,0,.03,0,.05,0,.08.69.33,1.32.84,1.89,1.54.57.7,1.15,1.65,1.75,2.87,1.29,2.69,2.56,5.39,3.82,8.09ZM322.04,6.17c-.16,2.58-.31,5.16-.47,7.74.91.06,1.82.11,2.72.17,1.44.09,2.57-.2,3.4-.89.83-.69,1.29-1.64,1.37-2.87.08-1.18-.22-2.11-.91-2.79-.69-.68-1.77-1.08-3.25-1.17-.96-.06-1.91-.12-2.87-.18Z"/>
    <path class="cls-1" d="M355.71,32.16c-3.93-.42-7.03-2-9.33-4.77-2.3-2.77-3.29-6.19-2.93-10.26.38-4.3,2-7.66,4.89-10.07,2.89-2.41,6.51-3.39,10.8-2.94,4.06.43,7.23,2.08,9.46,4.92,2.24,2.84,3.08,6.34,2.57,10.48-.53,4.26-2.25,7.53-5.12,9.83-2.88,2.3-6.31,3.23-10.34,2.8ZM356.4,26.81c2.16.23,3.97-.33,5.46-1.69,1.49-1.36,2.39-3.37,2.7-6.05.32-2.79-.07-5.03-1.2-6.73-1.13-1.7-2.78-2.67-4.96-2.9-2.24-.24-4.14.38-5.66,1.84-1.53,1.46-2.41,3.51-2.67,6.14-.26,2.67.21,4.84,1.4,6.53,1.19,1.69,2.83,2.64,4.92,2.86Z"/>
    <path class="cls-1" d="M375.87,28.69c1.85-.67,3.71-1.33,5.57-1.98.43,1.25,1.07,2.22,1.95,2.91.87.69,1.87,1.11,3,1.28,1.39.2,2.45.09,3.21-.33.75-.42,1.2-1.09,1.34-2,.14-.94-.11-1.74-.77-2.39-.65-.65-1.76-1.24-3.3-1.76-2.97-1.02-5.08-2.25-6.35-3.73-1.26-1.47-1.75-3.33-1.45-5.58.34-2.57,1.55-4.5,3.64-5.77,2.09-1.28,4.69-1.7,7.78-1.25,2.11.31,3.89.99,5.35,2.05,1.46,1.06,2.51,2.42,3.17,4.08-1.86.59-3.72,1.18-5.58,1.78-.39-.93-.89-1.64-1.49-2.12-.61-.48-1.44-.8-2.49-.95-1.22-.18-2.2-.06-2.93.37-.73.42-1.15,1.02-1.26,1.8-.11.79.12,1.48.7,2.05.58.58,1.73,1.14,3.46,1.7,2.87.95,4.94,2.24,6.23,3.86,1.28,1.62,1.73,3.62,1.35,5.99-.43,2.68-1.63,4.67-3.61,5.98-1.98,1.31-4.56,1.72-7.77,1.25-2.32-.34-4.35-1.14-6.08-2.41-1.73-1.27-2.95-2.87-3.65-4.82Z"/>
  </g>
</svg>